<svg width="450" height="388" viewBox="0 0 450 388" fill="none" xmlns="http://www.w3.org/2000/svg">
<mask id="mask0_765_1839" style="mask-type:luminance" maskUnits="userSpaceOnUse" x="0" y="0" width="450" height="388">
<path d="M0 0H450V388H0V0Z" fill="white"/>
</mask>
<g mask="url(#mask0_765_1839)">
<path d="M381.85 128.605H362.886C290.441 128.605 249.771 97.3756 213.892 69.8277C185.127 47.7337 145.552 28.6673 108.183 28.6673H68.6479C48.5494 28.6673 31.2241 43.3615 30.2314 62.5031C30.1683 63.7051 30.1683 64.9071 30.2393 66.109C30.3023 67.311 30.4283 68.513 30.6253 69.7C30.8144 70.8869 31.0744 72.0664 31.3895 73.2308C31.7047 74.4027 32.0907 75.5446 32.5241 76.679C32.9653 77.8058 33.4616 78.9102 34.021 79.992C34.5804 81.0737 35.195 82.1255 35.8568 83.1472C36.5265 84.1688 37.2513 85.153 38.0234 86.107C38.7955 87.0536 39.6149 87.9701 40.4894 88.8415C41.3561 89.713 42.27 90.5469 43.2312 91.3281C44.1924 92.1094 45.1852 92.8457 46.2251 93.5368C47.2572 94.2279 48.3288 94.859 49.4318 95.4449C50.5427 96.0309 51.6693 96.5643 52.8354 97.0376C53.9935 97.5108 55.1753 97.9315 56.3808 98.2921C57.5862 98.6527 58.8074 98.9532 60.0444 99.2011C61.2813 99.4415 62.5262 99.6293 63.7789 99.7495C65.0395 99.8773 66.3001 99.9374 67.5607 99.9374H131.733C233.297 99.9374 293.932 144.245 293.932 218.453H293.829C293.9 218.453 293.932 218.49 293.932 218.551V321.583C293.932 323.792 293.813 326.008 293.577 328.209C293.349 330.41 292.994 332.596 292.537 334.767C292.072 336.938 291.497 339.079 290.804 341.198C290.118 343.309 289.323 345.39 288.416 347.426C287.51 349.469 286.502 351.46 285.391 353.405C284.272 355.344 283.059 357.229 281.751 359.062C280.435 360.888 279.033 362.646 277.536 364.344C276.039 366.034 274.463 367.656 272.793 369.197C271.131 370.744 269.389 372.201 267.569 373.576C265.749 374.959 263.859 376.243 261.905 377.445C259.951 378.64 257.942 379.744 255.87 380.751C253.805 381.75 251.686 382.659 249.519 383.463C247.361 384.266 245.155 384.965 242.917 385.558C240.679 386.159 238.418 386.64 236.133 387.023C233.841 387.399 231.54 387.669 229.224 387.827C226.907 387.993 224.591 388.038 222.267 387.977C184.339 386.956 154.605 356.268 154.605 320.065V159.12C154.605 158.181 154.699 157.242 154.896 156.325C155.085 155.401 155.369 154.5 155.747 153.636C156.125 152.764 156.59 151.938 157.142 151.157C157.685 150.376 158.308 149.647 159.009 148.986C159.71 148.317 160.466 147.724 161.286 147.198C162.105 146.679 162.972 146.236 163.886 145.876C164.8 145.515 165.737 145.245 166.706 145.064C167.675 144.876 168.652 144.786 169.637 144.786C170.622 144.786 171.599 144.876 172.568 145.064C173.537 145.245 174.475 145.515 175.389 145.876C176.303 146.236 177.169 146.679 177.989 147.198C178.808 147.724 179.572 148.317 180.266 148.986C180.967 149.647 181.589 150.376 182.133 151.157C182.684 151.938 183.149 152.764 183.527 153.636C183.905 154.5 184.189 155.401 184.378 156.325C184.575 157.242 184.67 158.181 184.67 159.12V320.404C184.67 342.866 203.965 361 227.443 359.22C229.901 359.032 232.32 358.627 234.699 358.003C237.079 357.38 239.379 356.553 241.593 355.524C243.807 354.495 245.903 353.278 247.888 351.873C249.866 350.468 251.686 348.906 253.364 347.178C255.034 345.45 256.523 343.587 257.831 341.596C259.139 339.605 260.242 337.509 261.14 335.323C262.039 333.13 262.724 330.883 263.181 328.569C263.638 326.263 263.866 323.934 263.874 321.583V218.551C263.874 218.49 263.914 218.453 263.985 218.453H263.874C263.874 140.271 181.077 128.605 131.733 128.605H68.9946C32.3035 128.605 1.24563 101.222 0.126851 66.2518C0.0559432 64.1032 0.103215 61.9622 0.260789 59.8212C0.426241 57.6801 0.694118 55.5541 1.08017 53.4356C1.45835 51.3172 1.95471 49.2287 2.55349 47.1628C3.15227 45.0894 3.86136 43.0535 4.68074 41.0552C5.49225 39.0569 6.41405 37.0962 7.43041 35.1805C8.45464 33.2724 9.57342 31.4093 10.7867 29.6063C12.0079 27.7958 13.3079 26.053 14.7103 24.3702C16.1127 22.6874 17.5939 21.0798 19.1618 19.5397C20.7297 17.9997 22.3763 16.5348 24.0939 15.1525C25.8193 13.7702 27.6078 12.4706 29.4593 11.2611C31.3186 10.0441 33.2332 8.92472 35.2107 7.89552C37.1883 6.86633 39.2131 5.92728 41.2852 5.0934C43.3573 4.25953 45.4688 3.52331 47.6197 2.88476C49.7706 2.25372 51.9451 1.72034 54.1511 1.29213C56.365 0.863926 58.5868 0.540892 60.8244 0.330545C63.0619 0.112686 65.3074 0 67.5607 0H108.191C156.133 0 202.342 24.1448 232.753 47.4933C266.372 73.2759 301.046 99.9374 362.902 99.9374H380.779C400.885 99.9374 418.194 85.2356 419.187 66.094C419.25 64.892 419.25 63.6901 419.179 62.4881C419.116 61.2861 418.99 60.0841 418.793 58.8972C418.604 57.7102 418.344 56.5308 418.029 55.3663C417.714 54.2019 417.336 53.0525 416.894 51.9257C416.453 50.7913 415.957 49.687 415.398 48.6052C414.838 47.5309 414.224 46.4792 413.562 45.4575C412.892 44.4358 412.167 43.4442 411.395 42.4976C410.623 41.5435 409.804 40.627 408.929 39.7556C408.062 38.8841 407.149 38.0578 406.187 37.269C405.226 36.4877 404.233 35.7515 403.193 35.0603C402.161 34.3767 401.09 33.7382 399.987 33.1522C398.884 32.5737 397.749 32.0404 396.591 31.5671C395.425 31.0863 394.243 30.6731 393.038 30.3125C391.832 29.9519 390.611 29.6439 389.374 29.4035C388.137 29.1631 386.892 28.9753 385.64 28.8551C384.379 28.7274 383.118 28.6673 381.858 28.6673H234.676C233.691 28.6673 232.714 28.5771 231.745 28.3893C230.776 28.209 229.838 27.9386 228.924 27.578C228.01 27.2174 227.144 26.7742 226.324 26.2483C225.505 25.7299 224.749 25.1365 224.047 24.4679C223.354 23.8068 222.724 23.0781 222.18 22.2968C221.629 21.5155 221.172 20.6891 220.794 19.8177C220.415 18.9538 220.124 18.0523 219.935 17.1283C219.746 16.2042 219.643 15.2727 219.643 14.3336C219.643 13.3946 219.746 12.4631 219.935 11.539C220.124 10.615 220.415 9.72104 220.794 8.8496C221.172 7.97816 221.629 7.1518 222.18 6.37051C222.724 5.58922 223.354 4.86803 224.047 4.19943C224.749 3.53082 225.505 2.93734 226.324 2.41899C227.144 1.89312 228.01 1.44989 228.924 1.0893C229.838 0.736216 230.776 0.458256 231.745 0.277959C232.714 0.0901473 233.691 0 234.676 0H380.416C417.107 0 448.165 27.3827 449.26 62.3529C449.323 64.5014 449.276 66.6424 449.118 68.7835C448.961 70.9245 448.693 73.0505 448.307 75.169C447.929 77.28 447.432 79.3759 446.834 81.4418C446.227 83.5078 445.518 85.5436 444.706 87.5419C443.887 89.5402 442.973 91.5009 441.949 93.4091C440.932 95.3247 439.814 97.1878 438.6 98.9908C437.387 100.794 436.079 102.544 434.677 104.219C433.282 105.902 431.801 107.517 430.233 109.057C428.665 110.597 427.019 112.055 425.301 113.445C423.576 114.827 421.787 116.127 419.936 117.336C418.076 118.546 416.162 119.672 414.184 120.702C412.215 121.731 410.19 122.662 408.118 123.504C406.046 124.338 403.934 125.074 401.783 125.712C399.632 126.351 397.458 126.877 395.252 127.305C393.046 127.733 390.824 128.056 388.586 128.274C386.349 128.492 384.103 128.605 381.85 128.605Z" fill="white"/>
</g>
</svg>
