<?xml version="1.0" encoding="UTF-8"?>
<svg xmlns="http://www.w3.org/2000/svg" xmlns:xlink="http://www.w3.org/1999/xlink" viewBox="0 0 473.77 399.02">
  <defs>
    <style>
      .cls-1 {
        fill: url(#linear-gradient-24);
        mix-blend-mode: multiply;
      }

      .cls-1, .cls-2, .cls-3, .cls-4, .cls-5, .cls-6, .cls-7, .cls-8, .cls-9, .cls-10, .cls-11, .cls-12, .cls-13, .cls-14, .cls-15, .cls-16, .cls-17, .cls-18, .cls-19, .cls-20, .cls-21, .cls-22, .cls-23, .cls-24, .cls-25, .cls-26, .cls-27, .cls-28, .cls-29, .cls-30, .cls-31, .cls-32, .cls-33, .cls-34, .cls-35, .cls-36, .cls-37, .cls-38, .cls-39 {
        stroke-width: 0px;
      }

      .cls-2 {
        fill: url(#linear-gradient-12);
      }

      .cls-3 {
        fill: url(#linear-gradient-17);
      }

      .cls-4 {
        fill: url(#linear-gradient-19);
      }

      .cls-5 {
        fill: url(#linear-gradient-33);
      }

      .cls-6 {
        fill: url(#linear-gradient-4);
      }

      .cls-6, .cls-12, .cls-29, .cls-33, .cls-35 {
        opacity: .15;
      }

      .cls-40, .cls-41, .cls-42, .cls-43, .cls-44, .cls-45, .cls-13, .cls-46, .cls-47, .cls-48, .cls-49 {
        fill: none;
      }

      .cls-40, .cls-41, .cls-42, .cls-45, .cls-48 {
        stroke-miterlimit: 10;
      }

      .cls-40, .cls-42, .cls-43, .cls-44, .cls-45, .cls-46, .cls-50, .cls-47, .cls-49 {
        stroke: #000;
      }

      .cls-7 {
        fill: url(#linear-gradient-21);
      }

      .cls-8 {
        fill: url(#linear-gradient-6);
      }

      .cls-41, .cls-48 {
        stroke: #fff;
      }

      .cls-42, .cls-43, .cls-44, .cls-46, .cls-50, .cls-47, .cls-49 {
        stroke-linecap: round;
      }

      .cls-51 {
        isolation: isolate;
      }

      .cls-43, .cls-44, .cls-46, .cls-50, .cls-47, .cls-49 {
        stroke-linejoin: round;
      }

      .cls-43, .cls-45, .cls-50 {
        stroke-width: .75px;
      }

      .cls-10 {
        fill: url(#linear-gradient-15);
      }

      .cls-11 {
        fill: url(#linear-gradient-11);
      }

      .cls-12 {
        fill: url(#linear-gradient-2);
      }

      .cls-44, .cls-48 {
        stroke-width: .5px;
      }

      .cls-14 {
        fill: url(#linear-gradient-31);
      }

      .cls-15 {
        fill: url(#linear-gradient-34);
      }

      .cls-50, .cls-21 {
        fill: #fff;
      }

      .cls-16 {
        fill: url(#linear-gradient-13);
      }

      .cls-17 {
        fill: url(#linear-gradient-23);
      }

      .cls-47 {
        stroke-width: .25px;
      }

      .cls-18 {
        fill: url(#linear-gradient-25);
      }

      .cls-19 {
        fill: url(#linear-gradient-16);
      }

      .cls-20 {
        fill: url(#linear-gradient-22);
      }

      .cls-22 {
        fill: url(#linear-gradient-35);
      }

      .cls-23 {
        fill: url(#linear-gradient-32);
      }

      .cls-24 {
        fill: url(#linear-gradient-20);
      }

      .cls-25 {
        fill: url(#linear-gradient-14);
      }

      .cls-26 {
        fill: url(#linear-gradient-7);
      }

      .cls-52 {
        clip-path: url(#clippath);
      }

      .cls-27 {
        fill: url(#linear-gradient-9);
      }

      .cls-28 {
        fill: url(#linear-gradient-27);
      }

      .cls-29 {
        fill: url(#linear-gradient);
      }

      .cls-30 {
        fill: url(#linear-gradient-8);
      }

      .cls-31 {
        fill: url(#linear-gradient-26);
      }

      .cls-32 {
        fill: url(#linear-gradient-18);
      }

      .cls-33 {
        fill: url(#linear-gradient-5);
      }

      .cls-34 {
        fill: url(#linear-gradient-30);
      }

      .cls-35 {
        fill: url(#linear-gradient-3);
      }

      .cls-36 {
        fill: url(#linear-gradient-29);
      }

      .cls-37 {
        fill: url(#linear-gradient-28);
      }

      .cls-38 {
        fill: url(#linear-gradient-10);
      }

      .cls-49 {
        stroke-width: .44px;
      }

      .cls-39 {
        fill: #7050d9;
      }
    </style>
    <linearGradient id="linear-gradient" x1="253.88" y1="77.33" x2="253.88" y2="320.85" gradientUnits="userSpaceOnUse">
      <stop offset="0" stop-color="#8ab9fd"/>
      <stop offset="1" stop-color="#0056e9"/>
    </linearGradient>
    <linearGradient id="linear-gradient-2" x1="105.09" y1="57.8" x2="105.09" y2="98.84" xlink:href="#linear-gradient"/>
    <linearGradient id="linear-gradient-3" x1="359.73" y1="120.25" x2="417.22" y2="120.25" xlink:href="#linear-gradient"/>
    <linearGradient id="linear-gradient-4" x1="31.64" y1="210.39" x2="89.13" y2="210.39" xlink:href="#linear-gradient"/>
    <linearGradient id="linear-gradient-5" x1="213.9" y1="13.68" x2="295.99" y2="13.68" xlink:href="#linear-gradient"/>
    <linearGradient id="linear-gradient-6" x1="137.57" y1="310.76" x2="92.63" y2="266.84" gradientUnits="userSpaceOnUse">
      <stop offset="0" stop-color="#53b0b1"/>
      <stop offset="1" stop-color="#6acad8"/>
    </linearGradient>
    <linearGradient id="linear-gradient-7" x1="399.9" y1="386.32" x2="438.2" y2="341.89" xlink:href="#linear-gradient-6"/>
    <linearGradient id="linear-gradient-8" x1="130.37" y1="94.56" x2="130.37" y2="222.48" xlink:href="#linear-gradient"/>
    <linearGradient id="linear-gradient-9" x1="323.29" y1="90.65" x2="323.29" y2="38.28" gradientUnits="userSpaceOnUse">
      <stop offset="0" stop-color="#ff9c00"/>
      <stop offset="1" stop-color="#ffca00"/>
    </linearGradient>
    <linearGradient id="linear-gradient-10" x1="349.78" y1="90.64" x2="349.78" y2="38.28" xlink:href="#linear-gradient-9"/>
    <linearGradient id="linear-gradient-11" x1="376.26" y1="90.65" x2="376.26" y2="38.28" xlink:href="#linear-gradient-9"/>
    <linearGradient id="linear-gradient-12" x1="349.78" y1="90.65" x2="349.78" y2="38.28" xlink:href="#linear-gradient-9"/>
    <linearGradient id="linear-gradient-13" x1="349.78" y1="90.65" x2="349.78" y2="38.28" xlink:href="#linear-gradient-9"/>
    <linearGradient id="linear-gradient-14" x1="309.56" y1="128.74" x2="309.56" y2="119.41" gradientUnits="userSpaceOnUse">
      <stop offset="0" stop-color="#be1e2b"/>
      <stop offset="1" stop-color="#d3535c"/>
    </linearGradient>
    <linearGradient id="linear-gradient-15" x1="393.2" y1="223.88" x2="393.2" y2="216.01" xlink:href="#linear-gradient-6"/>
    <linearGradient id="linear-gradient-16" x1="236.89" y1="294.1" x2="236.89" y2="388.34" gradientUnits="userSpaceOnUse">
      <stop offset="0" stop-color="#6f95ed"/>
      <stop offset="1" stop-color="#5873ec"/>
    </linearGradient>
    <clipPath id="clippath">
      <path class="cls-13" d="m404.53,352.44c-6.89-3.83-19.91-19.95-19.91-19.95h0c-16.48-21.85-56.09-51.45-147.73-41.18-91.64-10.27-131.25,19.32-147.73,41.18h0s-13.02,16.12-19.91,19.95-12.06,9.43-11.36,11.49c1.98,5.81,22.44,2.81,36.29,16.87,1.85,2.03,3.91,4.09,6.19,6.14h273.06c2.28-2.05,4.33-4.11,6.19-6.14,13.84-14.06,34.31-11.07,36.29-16.87.7-2.06-4.47-7.66-11.36-11.49Z"/>
    </clipPath>
    <linearGradient id="linear-gradient-17" x1="199.92" y1="357.89" x2="191.88" y2="377.42" gradientUnits="userSpaceOnUse">
      <stop offset="0" stop-color="#ffd2b6"/>
      <stop offset="1" stop-color="#ffb793"/>
    </linearGradient>
    <linearGradient id="linear-gradient-18" x1="195.74" y1="329.09" x2="201.49" y2="351.49" xlink:href="#linear-gradient-17"/>
    <linearGradient id="linear-gradient-19" x1="215.84" y1="383.6" x2="215.84" y2="292.38" gradientUnits="userSpaceOnUse">
      <stop offset="0" stop-color="#3f2dd1"/>
      <stop offset="1" stop-color="#4b3ffa"/>
    </linearGradient>
    <linearGradient id="linear-gradient-20" x1="235.08" y1="369.54" x2="235.08" y2="276.86" xlink:href="#linear-gradient-19"/>
    <linearGradient id="linear-gradient-21" x1="229.3" y1="277.63" x2="229.3" y2="179.1" xlink:href="#linear-gradient-9"/>
    <linearGradient id="linear-gradient-22" x1="254.94" y1="277.63" x2="254.94" y2="179.1" xlink:href="#linear-gradient-9"/>
    <linearGradient id="linear-gradient-23" x1="246.38" y1="166.18" x2="246.38" y2="198.07" xlink:href="#linear-gradient-17"/>
    <linearGradient id="linear-gradient-24" x1="244.16" y1="193.13" x2="253.04" y2="193.13" xlink:href="#linear-gradient-17"/>
    <linearGradient id="linear-gradient-25" x1="236.74" y1="263.91" x2="236.74" y2="258.26" xlink:href="#linear-gradient-17"/>
    <linearGradient id="linear-gradient-26" x1="265.15" y1="264.42" x2="265.15" y2="230.65" xlink:href="#linear-gradient-17"/>
    <linearGradient id="linear-gradient-27" x1="275.86" y1="277.63" x2="275.86" y2="179.1" xlink:href="#linear-gradient-9"/>
    <linearGradient id="linear-gradient-28" x1="182.14" y1="386.9" x2="182.14" y2="368.03" xlink:href="#linear-gradient-9"/>
    <linearGradient id="linear-gradient-29" x1="321.7" y1="302.71" x2="321.7" y2="307.43" xlink:href="#linear-gradient-19"/>
    <linearGradient id="linear-gradient-30" x1="321.7" y1="335.27" x2="321.7" y2="339.98" xlink:href="#linear-gradient-19"/>
    <linearGradient id="linear-gradient-31" x1="334.97" y1="295.34" x2="334.97" y2="263.83" xlink:href="#linear-gradient-14"/>
    <linearGradient id="linear-gradient-32" x1="317.81" y1="260.41" x2="317.81" y2="228.9" gradientTransform="translate(-78.93 251.43) rotate(-38.26)" xlink:href="#linear-gradient-14"/>
    <linearGradient id="linear-gradient-33" x1="322.47" y1="299.61" x2="347.46" y2="299.61" xlink:href="#linear-gradient-14"/>
    <linearGradient id="linear-gradient-34" x1="333.16" y1="282.15" x2="333.16" y2="291.38" gradientTransform="translate(327.27 -191.86) rotate(51.95)" xlink:href="#linear-gradient-9"/>
    <linearGradient id="linear-gradient-35" x1="333.12" y1="271.69" x2="333.12" y2="287.08" gradientTransform="translate(327.27 -191.86) rotate(51.95)" xlink:href="#linear-gradient-14"/>
  </defs>
  <g class="cls-51">
    <g id="Layer_2" data-name="Layer 2">
      <g id="OBJECTS">
        <g>
          <g>
            <g>
              <polygon class="cls-29" points="364.32 258.91 364.32 337.32 143.43 337.32 143.43 212.64 188.48 212.64 188.48 248.56 195.58 248.56 195.58 134.31 216.01 113.88 233.08 113.88 233.08 163.68 249.57 163.68 249.57 91.99 275.86 91.99 291.16 107.29 291.16 206.74 301.95 206.74 301.95 168.83 338.64 168.83 338.64 233.23 364.32 258.91"/>
              <g>
                <g>
                  <rect class="cls-21" x="306.91" y="172.05" width="5.7" height="5.7"/>
                  <rect class="cls-21" x="317.45" y="172.05" width="5.7" height="5.7"/>
                  <rect class="cls-21" x="327.98" y="172.05" width="5.7" height="5.7"/>
                </g>
                <g>
                  <rect class="cls-21" x="306.91" y="182.78" width="5.7" height="5.7"/>
                  <rect class="cls-21" x="317.45" y="182.78" width="5.7" height="5.7"/>
                  <rect class="cls-21" x="327.98" y="182.78" width="5.7" height="5.7"/>
                </g>
                <g>
                  <rect class="cls-21" x="306.91" y="193.5" width="5.7" height="5.7"/>
                  <rect class="cls-21" x="317.45" y="193.5" width="5.7" height="5.7"/>
                  <rect class="cls-21" x="327.98" y="193.5" width="5.7" height="5.7"/>
                </g>
                <g>
                  <rect class="cls-21" x="306.91" y="204.22" width="5.7" height="5.7"/>
                  <rect class="cls-21" x="317.45" y="204.22" width="5.7" height="5.7"/>
                  <rect class="cls-21" x="327.98" y="204.22" width="5.7" height="5.7"/>
                </g>
                <g>
                  <rect class="cls-21" x="306.91" y="214.95" width="5.7" height="5.7"/>
                  <rect class="cls-21" x="317.45" y="214.95" width="5.7" height="5.7"/>
                  <rect class="cls-21" x="327.98" y="214.95" width="5.7" height="5.7"/>
                </g>
                <g>
                  <rect class="cls-21" x="306.91" y="225.67" width="5.7" height="5.7"/>
                  <rect class="cls-21" x="317.45" y="225.67" width="5.7" height="5.7"/>
                  <rect class="cls-21" x="327.98" y="225.67" width="5.7" height="5.7"/>
                </g>
                <g>
                  <rect class="cls-21" x="317.45" y="236.39" width="5.7" height="5.7"/>
                  <rect class="cls-21" x="327.98" y="236.39" width="5.7" height="5.7"/>
                </g>
                <rect class="cls-21" x="327.98" y="247.12" width="5.7" height="5.7"/>
              </g>
              <g>
                <rect class="cls-21" x="198.58" y="135.16" width="31.5" height="3.1"/>
                <rect class="cls-21" x="198.58" y="141.74" width="31.5" height="3.1"/>
                <rect class="cls-21" x="198.58" y="148.32" width="31.5" height="3.1"/>
                <rect class="cls-21" x="198.58" y="154.89" width="31.5" height="3.1"/>
                <rect class="cls-21" x="198.58" y="161.47" width="31.5" height="3.1"/>
                <rect class="cls-21" x="198.58" y="168.05" width="31.5" height="3.1"/>
                <rect class="cls-21" x="198.58" y="174.63" width="15.9" height="3.1"/>
                <rect class="cls-21" x="198.58" y="181.21" width="15.75" height="3.1"/>
              </g>
            </g>
            <polygon class="cls-21" points="255.94 231.37 253.94 231.37 253.94 95.99 274.79 95.99 274.79 97.99 255.94 97.99 255.94 231.37"/>
            <rect class="cls-21" x="198.58" y="188.99" width="2.09" height="42.38"/>
          </g>
          <g>
            <path class="cls-12" d="m161.29,67.65H57.98s-12.24-10.56-8.31-18.98c4.09-8.75,21.25.88,21.25.88,0,0-8.5-18.16,8.11-19.32,16.62-1.16,39.8,21.25,39.8,21.25,0,0-3.67-8.69,5.6-7.92,9.27.77,36.84,24.09,36.84,24.09Z"/>
            <path class="cls-35" d="m417.22,129.84h-52.84s-6.26-5.4-4.25-9.71c2.09-4.48,10.87.45,10.87.45,0,0-4.35-9.29,4.15-9.88,8.5-.59,20.36,10.87,20.36,10.87,0,0-1.88-4.45,2.87-4.05s18.84,12.32,18.84,12.32Z"/>
            <path class="cls-6" d="m89.13,219.97h-52.84s-6.26-5.4-4.25-9.71c2.09-4.48,10.87.45,10.87.45,0,0-4.35-9.29,4.15-9.88,8.5-.59,20.36,10.87,20.36,10.87,0,0-1.88-4.45,2.87-4.05,4.74.4,18.84,12.32,18.84,12.32Z"/>
            <path class="cls-33" d="m295.99,27.36h-75.46s-8.94-7.72-6.07-13.86c2.98-6.39,15.52.65,15.52.65,0,0-6.21-13.27,5.93-14.11,12.14-.85,29.07,15.52,29.07,15.52,0,0-2.68-6.35,4.09-5.79,6.77.56,26.91,17.59,26.91,17.59Z"/>
          </g>
        </g>
        <g>
          <path class="cls-8" d="m130.59,339.01s-41.79-4.36-68.86-49.53c0,0,19.27,4.73,44.29,17.26,0,0-14.68-13.4-22.09-31.4,0,0,14.17,5.87,29.36,24.89,0,0-13.02-23.23-11.62-45.06,0,0,14.3,7.02,29.77,37.41,0,0,.23-26.3,4.95-41.11,0,0,18.38,32.43,16.85,75.57l-22.67,11.98Z"/>
          <g>
            <path class="cls-9" d="m384.58,380.14s9.19-46.21,38.55-63.06c0,0-3.31,25.28-30.89,63.06"/>
            <path class="cls-26" d="m372.8,386.37s1.08-42.51,32.79-64.73c0,0,.07,29-14.87,48.78,0,0,16.77-34.69,57.69-40.11,0,0-14.37,30.89-39.57,41.46,0,0,33.88-8.94,57.99-1.9,0,0-17.61,11.31-47.02,16.5"/>
          </g>
        </g>
        <g>
          <g>
            <path class="cls-9" d="m187.75,133.17c-11.66-41.14-54.92-64.79-96-52.09-39.49,12.21-62.2,54.34-50.73,94.06,9.82,34.02,41.29,55.97,75.17,55.12,5.09-.13,9.64,3.14,11.03,8.04l32.07,113.19c1.59,5.63,7.45,8.9,13.08,7.3h0c5.63-1.59,8.9-7.45,7.3-13.08l-32.07-113.19c-1.39-4.89.75-10.06,5.15-12.62,29.41-17.1,44.71-52.5,35.01-86.74Zm-57.43,77.23c-31.16,8.83-63.59-9.28-72.42-40.44-8.83-31.16,9.28-63.59,40.44-72.42,31.16-8.83,63.59,9.28,72.42,40.44,8.83,31.16-9.28,63.59-40.44,72.42Z"/>
            <path class="cls-21" d="m143.43,142.64s24.73-33.73,45.7-46.65h-14.08s-24.85,18.52-31.62,46.65Z"/>
            <path class="cls-30" d="m66.79,148.32s33.11,20.52,49.02,50.88c0,0,27-77.44,78.13-113.82,0,0-48.79,11.61-82.3,79.2,0,0-21.3-16.26-44.85-16.26Z"/>
          </g>
          <g>
            <circle class="cls-9" cx="349.78" cy="65.51" r="34.39"/>
            <circle class="cls-21" cx="349.78" cy="65.51" r="29.76" transform="translate(228.58 400.09) rotate(-80.7)"/>
            <g>
              <path class="cls-27" d="m323.29,63.71c.99,0,1.8.81,1.8,1.8s-.81,1.8-1.8,1.8-1.8-.81-1.8-1.8.81-1.8,1.8-1.8Z"/>
              <path class="cls-38" d="m351.58,39.02c0,.99-.81,1.8-1.8,1.8s-1.8-.81-1.8-1.8.81-1.8,1.8-1.8,1.8.81,1.8,1.8Z"/>
              <path class="cls-11" d="m376.26,67.3c-.99,0-1.8-.81-1.8-1.8s.81-1.8,1.8-1.8,1.8.81,1.8,1.8-.81,1.8-1.8,1.8Z"/>
              <path class="cls-2" d="m347.98,91.99c0-.99.81-1.8,1.8-1.8s1.8.81,1.8,1.8-.81,1.8-1.8,1.8-1.8-.81-1.8-1.8Z"/>
              <path class="cls-16" d="m349.78,70.47c-2.74,0-4.96-2.22-4.96-4.96s2.22-4.96,4.96-4.96,4.96,2.22,4.96,4.96-2.22,4.96-4.96,4.96Z"/>
            </g>
            <path class="cls-9" d="m349.78,68.74c-1.79,0-3.24-1.45-3.24-3.24s1.45-3.24,3.24-3.24,3.24,1.45,3.24,3.24-1.45,3.24-3.24,3.24Z"/>
            <path class="cls-9" d="m335.71,53.87l12.19,13.78,1.87-2.15,1.87-2.15-15.31-10.2c-.46-.31-.99.29-.62.71Z"/>
            <line class="cls-46" x1="349.78" y1="65.51" x2="333.67" y2="81.65"/>
          </g>
          <g>
            <g>
              <rect class="cls-21" x="276.69" y="123.36" width="45.26" height="32.98" rx="3.56" ry="3.56"/>
              <polyline class="cls-43" points="316.27 146.32 299.32 134.31 282.37 146.32"/>
              <rect class="cls-45" x="276.69" y="123.36" width="45.26" height="32.98" rx="3.56" ry="3.56"/>
              <path class="cls-50" d="m276.69,128.25l20.08,14.22c1.53,1.08,3.58,1.08,5.11,0l20.08-14.22"/>
              <g>
                <path class="cls-25" d="m315.16,123.36c0,3.1-2.51,5.61-5.61,5.61s-5.61-2.51-5.61-5.61,2.51-5.61,5.61-5.61,5.61,2.51,5.61,5.61Z"/>
                <g>
                  <rect class="cls-21" x="307.18" y="120.25" width="1.71" height="6.22"/>
                  <rect class="cls-21" x="310.22" y="120.25" width="1.71" height="6.22"/>
                </g>
              </g>
            </g>
            <g>
              <rect class="cls-21" x="365.53" y="219.34" width="38.11" height="27.77" rx="3" ry="3"/>
              <polyline class="cls-43" points="398.85 238.68 384.58 228.57 370.31 238.68"/>
              <rect class="cls-45" x="365.53" y="219.34" width="38.11" height="27.77" rx="3" ry="3"/>
              <path class="cls-50" d="m365.53,223.46l16.9,11.98c1.29.91,3.01.91,4.3,0l16.9-11.98"/>
              <g>
                <circle class="cls-10" cx="393.2" cy="219.34" r="4.72"/>
                <g>
                  <rect class="cls-21" x="391.2" y="216.73" width="1.44" height="5.23"/>
                  <rect class="cls-21" x="393.76" y="216.73" width="1.44" height="5.23"/>
                </g>
              </g>
            </g>
            <g>
              <path class="cls-21" d="m21.06,274h25.46c1.31,0,2.38,1.06,2.38,2.38v17.26c0,1.31-1.06,2.38-2.38,2.38h-25.46c-1.31,0-2.38-1.06-2.38-2.38v-17.26c0-1.31,1.06-2.38,2.38-2.38Z"/>
              <polyline class="cls-43" points="45.11 289.32 33.79 281.31 22.48 289.32"/>
              <path class="cls-45" d="m21.06,274h25.46c1.31,0,2.38,1.06,2.38,2.38v17.26c0,1.31-1.06,2.38-2.38,2.38h-25.46c-1.31,0-2.38-1.06-2.38-2.38v-17.26c0-1.31,1.06-2.38,2.38-2.38Z"/>
              <path class="cls-50" d="m18.69,277.26l13.4,9.5c1.02.72,2.39.72,3.41,0l13.4-9.5"/>
            </g>
          </g>
        </g>
        <g>
          <path class="cls-19" d="m404.53,352.44c-6.89-3.83-19.91-19.95-19.91-19.95h0c-16.48-21.85-56.09-51.45-147.73-41.18-91.64-10.27-131.25,19.32-147.73,41.18h0s-13.02,16.12-19.91,19.95-12.06,9.43-11.36,11.49c1.98,5.81,22.44,2.81,36.29,16.87,1.85,2.03,3.91,4.09,6.19,6.14h273.06c2.28-2.05,4.33-4.11,6.19-6.14,13.84-14.06,34.31-11.07,36.29-16.87.7-2.06-4.47-7.66-11.36-11.49Z"/>
          <g class="cls-52">
            <g>
              <path class="cls-41" d="m64.92,321.28s26.73,26.77,49.79,13.6c25.66-14.65,4.98-47.95,4.98-47.95"/>
              <path class="cls-41" d="m149.17,282.47s-24.72,32.9-3.09,50.43c22.05,17.87,55.68-12.67,42.39-20.17-16.27-9.19-26.94,48.57,13.23,59.68,46.08,12.75,79.02-28.91,58.25-41.32-24.64-14.72-51.23,67.42,0,67.42"/>
              <path class="cls-41" d="m291.76,276.72s-8.11,35.49,20.05,44.91c32.94,11.02,48.77-24.13,48.77-24.13"/>
              <path class="cls-41" d="m304.86,390.61s-4.21-32.59,20.77-36.61c24.14-3.88,28.27,22.65,17.49,21.67-10.49-.96-13.83-37.14,9.29-48.26,23.17-11.14,39.39,4.79,47.81,14.94"/>
              <path class="cls-41" d="m81.58,376.91s6.94-20.53,34.47-18.45c30.04,2.27,30.04,31.12,30.04,31.12"/>
            </g>
          </g>
          <path class="cls-49" d="m412.03,363.03s-24.16,5.74-55.95,5.74c-22.97,0-39.29-5.74-55.37-5.74-8.05,0-46.59,2.96-63.83,2.96s-55.77-2.96-63.83-2.96c-16.08,0-32.4,5.74-55.37,5.74-31.79,0-55.95-5.74-55.95-5.74"/>
        </g>
        <g>
          <polygon class="cls-3" points="187.1 372.61 191.02 358.46 205.74 363.15 200.8 376.78 187.1 372.61"/>
          <polygon class="cls-32" points="194.76 348.28 189.84 335.76 203.21 331.1 207.33 344.59 194.76 348.28"/>
          <path class="cls-4" d="m227.52,298.2l-30.81-1.63c3.27,4.46,7.41,19.51,11.71,35.31-2.16,3.14-12.01,6.97-18.47,7.62-5.56-13.6-18.57-45.42-22.78-55.73s3.19-16.64,9.28-16.64h71.81c10.32.05,17.48.08,17.48.08l-38.22,30.99Z"/>
          <polygon class="cls-9" points="206.5 297.09 235.83 276.37 214.35 297.51 206.5 297.09"/>
          <path class="cls-44" d="m185.73,283.66c7.71,4.55,9.85,11.94,9.85,11.94"/>
          <path class="cls-44" d="m199.7,324.85c-3.1-10.42-11.77-34.85-13.98-41.19,13.12.57,37.36,2.62,37.36,2.62"/>
          <path class="cls-24" d="m241.69,271.28s-33.11,28.28-37.28,36.09c-1.4,2.61-15.94,56.13-15.94,56.13,4.21,3.17,17.42,6.21,20.69,6.21,0,0,14.33-35.35,17.2-48.97l30.43-18.32c4.67-2.81,10.02-4.3,15.47-4.3h5.73s6.28-13.49,2.44-21.64l-38.75-5.2Z"/>
          <path class="cls-44" d="m221.68,314.13s3.52,2.38,4.21,6.11"/>
          <path class="cls-44" d="m201.67,365.85s16.89-48.13,20.01-51.72c3.12-3.59,34.97-22.71,39.92-25.97,11.3-7.44,10.71-11.44,10.71-11.44"/>
          <path class="cls-40" d="m262.76,275.47s-9.43,6.78-3.23,14.01"/>
          <path class="cls-7" d="m230.6,238.83c-1.08-.26-2.12-.54-3.11-.84-10.18-2.99-13.01-6.56-13.01-6.56,6.39-17.93,9.01-25.15,12-28.45,2.21-2.44,14.9-4.85,17.6-5.16.69,4.38-15.08,21.83-15.47,22.04l1.98,18.97Z"/>
          <polygon class="cls-9" points="228.16 218.09 224.97 232.19 233.08 243.64 228.16 218.09"/>
          <path class="cls-20" d="m282.19,279.8c-.54,1.75-5.34,4.86-8.83,6.83,0,0-14.48-4.53-28.85-16.47-6.92-5.74-15.62-2.82-15.58-3.03,2.79-15.03.44-16.52.27-28.02,0-.29-.02-.57-.02-.86-.3-17.73-2.1-26.59-1.27-32.07,4.11-4.59,15.45-8.2,16.17-8.35.03-.01,11.93-.09,14.53,0,5.94,1.53,16.46,4.69,21.69,13.6-.29,7.12.17,15.77-.69,26.86-.15,1.67-.28,28.28,2.57,41.51Z"/>
          <g>
            <path class="cls-9" d="m231.41,168.83s-2.33,8.11,2.73,9.01l1.13-6.84"/>
            <path class="cls-17" d="m258.62,197.76c-1.19-.18-1.46-13.08-1.46-13.08h-.03c.4-.48.73-1.04.93-1.81,1.01-3.96,2.43-11.27.62-15.67-2.58-6.27-24.85-12.22-25.09,3.05,0,0-2.67,20.36,6.31,23.7,0,0,2.1.19,4.85-.4-.32,2.06-.65,4.21-.65,4.21h-.01c-.74.93-3.87,8.03,3.1,8.86,10.83,1.29,13.24-8.02,11.44-8.86Z"/>
            <path class="cls-1" d="m253.04,188.99c-.17.42-2.99,7.21-8.88,8.29l.59-3.74c2.58-.55,5.74-1.8,8.29-4.55Z"/>
            <path class="cls-9" d="m258.53,189.17l-1.15.67c-.3-3.33-.2-6.37-.4-8.7,0,0,0,0,0,0,.65-2.53.11-5.82-2.06-6.01-3.5-.31-3.62,4.74-3.62,4.74-3.06-.54-3.64-5.74-3.86-7.72-1.98.67-18.34,3.25-17.54-6.08,0,0-.73-1.44-.97-2.9-1.93-11.58,10.65-7.21,10.65-7.21,0,0,2.09-4.84,8.54-2.54,4.5,1.61,6.81,4.96,6.81,4.96,0,0,1.8-1.46,3.45.78,1.07,1.46.38,4.56.38,4.56,10.71,1.96-.1,24.72-.23,25.46Z"/>
          </g>
          <path class="cls-9" d="m263.34,225.04l5.48,19.15c2.68,0,8.64-1.16,10.53-2.49l-16.02-16.66Z"/>
          <path class="cls-18" d="m242.91,256.21s-5.03,1.3-6.02,1.74c-.47.21-5.47,4.16-6.14,4.69-.67.53.67,1.53,2.49,1.34,1.82-.19,6.65-3.21,6.65-3.21l3.02-3.73"/>
          <path class="cls-31" d="m284.71,218.42l-17.63,8.16s6.02,12.02,10.02,20.43c-3.85.94-24.42,7.92-24.42,7.92,0,0-8.52.65-9.77,1.28-1.4.7-9.48,8.78-9.48,8.78h3.03l6.93-1.88s3.88,1,6.03.9c2.15-.1,4.61-1.95,4.47-1.95,0,0,35.5-.05,37.56-.77,3.69-1.27,5.25-4.48,5.42-8.33.25-5.64-12.16-34.54-12.16-34.54Z"/>
          <g>
            <path class="cls-21" d="m248.5,267.13h-21.84v-2.14h21.84c.59,0,1.07.48,1.07,1.07h0c0,.59-.48,1.07-1.07,1.07Z"/>
            <path class="cls-21" d="m236.68,267.13h-52.2c-.65,0-1.23-.44-1.4-1.07l-11.19-40.3c-.25-.89.42-1.77,1.35-1.77h50.4c1.23,0,2.31.82,2.64,2.01l11.15,40.15c.14.49-.23.98-.74.98Z"/>
            <path class="cls-39" d="m234.7,267.13h-52.2c-.65,0-1.23-.44-1.4-1.07l-11.19-40.3c-.25-.89.42-1.77,1.35-1.77h50.4c1.23,0,2.31.82,2.64,2.01l11.15,40.15c.14.49-.23.98-.74.98Z"/>
            <path class="cls-48" d="m205.76,247.17c0,1.65-2.28,2.98-5.09,2.98s-5.09-1.33-5.09-2.98,2.28-2.98,5.09-2.98,5.09,1.33,5.09,2.98Z"/>
          </g>
          <path class="cls-28" d="m261.16,219.63c5.63,14.18,8.03,19.03,8.03,19.03,13.59-1.87,22.57-7.88,22.57-7.88-3.98-10.95-10.02-24.54-13.47-27.32-3.78-3.05-18.34-5.28-18.34-5.28"/>
          <path class="cls-47" d="m277.79,246.74s8.17-2.23,13.09,1.98"/>
          <g>
            <path class="cls-37" d="m184.68,367.12c-1.32.63-4.04,4.81-4.04,4.81,0,0-5.27,1.74-10.33,3.45-11.95.77-10.08,11.56-10.08,11.56h43.5s1.8-8.41-2.08-12.51l-9.23-2.05s.33-3.38-.22-4.24c-.56-.88-6.2-1.64-7.52-1.02Z"/>
            <path class="cls-9" d="m204.13,383.39c-.08,2.05-.4,3.55-.4,3.55h-43.5s-.27-1.56.06-3.55h43.84Z"/>
          </g>
        </g>
        <g>
          <g>
            <g>
              <polygon class="cls-9" points="300.77 386.78 293.87 386.78 293.87 366.89 304.77 366.89 300.77 386.78"/>
              <polygon class="cls-9" points="342.64 386.78 349.53 386.78 349.53 366.89 338.64 366.89 342.64 386.78"/>
            </g>
            <rect class="cls-9" x="291.83" y="301.57" width="59.74" height="67.95"/>
            <g>
              <rect class="cls-21" x="294.86" y="305.38" width="53.68" height="27.49"/>
              <rect class="cls-21" x="294.86" y="338.23" width="53.68" height="27.49"/>
            </g>
            <polygon class="cls-36" points="329.17 307.9 314.24 307.9 312.77 304.76 330.64 304.76 329.17 307.9"/>
            <polygon class="cls-34" points="329.17 340.45 314.24 340.45 312.77 337.32 330.64 337.32 329.17 340.45"/>
          </g>
          <g>
            <rect class="cls-14" x="333.97" y="263.36" width="2" height="36.64"/>
            <path class="cls-23" d="m335.56,262.12l-1.57,1.24-22.07-27.98c-.34-.43-.27-1.06.17-1.4h0c.43-.34,1.06-.27,1.4.17l22.07,27.98Z"/>
            <rect class="cls-5" x="322.47" y="297.64" width="24.99" height="3.94"/>
            <circle class="cls-9" cx="334.97" cy="263.08" r="2.61"/>
            <g>
              <path class="cls-15" d="m309.79,251.03c-2.11,1.65-5.16,1.28-6.81-.83-1.65-2.11-1.28-5.16.83-6.81,2.11-1.65,5.16-1.28,6.81.83s1.28,5.16-.83,6.81Z"/>
              <path class="cls-22" d="m316.86,245.28l4.69-4.36-5.14-6.57-5.36,3.5c-5.68-3.11-11.39,1.34-11.39,1.34l6.58,8.41,6.58,8.41s5.68-4.47,4.04-10.73Z"/>
              <g>
                <polygon class="cls-9" points="312.5 239.4 311.89 238.63 316.44 235.63 316.97 236.31 312.5 239.4"/>
                <polygon class="cls-9" points="313.78 241.04 313.18 240.27 317.57 237.07 318.1 237.75 313.78 241.04"/>
                <polygon class="cls-9" points="315.07 242.69 314.46 241.91 318.7 238.52 319.23 239.19 315.07 242.69"/>
                <polygon class="cls-9" points="316.36 244.33 315.75 243.56 319.82 239.96 320.35 240.64 316.36 244.33"/>
              </g>
            </g>
            <rect class="cls-9" x="325.44" y="295.72" width="3.81" height="1.91"/>
          </g>
          <path class="cls-9" d="m317.96,288.15c-1.49-.69-2.89-.14-3.89.55v-1.11h-17.11v8.23c0,1.32.6,2.56,1.62,3.38h0c.71.57,1.58.88,2.49.92h-.01v1.46h8.92v-1.45h-.01c.91-.05,1.78-.36,2.49-.93.73-.59,1.24-1.4,1.47-2.29.24.03.49.06.71.06,2.7,0,4.48-1.81,5.08-3.79.67-2.17-.06-4.24-1.75-5.02Zm.79,4.73c-.49,1.61-2.02,3.31-4.7,3.03,0-.03.01-.06.01-.1v-5.85c.79-.68,2.14-1.52,3.47-.9,1.43.66,1.63,2.45,1.21,3.82Z"/>
        </g>
        <g>
          <g>
            <g>
              <rect class="cls-9" x="376.78" y="192.56" width="6.31" height="6.31" transform="translate(249.68 -211.33) rotate(45)"/>
              <rect class="cls-9" x="393.47" y="192.56" width="6.31" height="6.31" transform="translate(254.56 -223.13) rotate(45)"/>
              <rect class="cls-9" x="410.17" y="192.56" width="6.31" height="6.31" transform="translate(259.45 -234.94) rotate(45)"/>
              <rect class="cls-9" x="426.86" y="192.56" width="6.31" height="6.31" transform="translate(264.34 -246.74) rotate(45)"/>
            </g>
            <g>
              <rect class="cls-9" x="163.82" y="52.35" width="3.57" height="3.57" transform="translate(86.78 -101.24) rotate(45)"/>
              <rect class="cls-9" x="173.26" y="52.35" width="3.57" height="3.57" transform="translate(89.55 -107.92) rotate(45)"/>
              <rect class="cls-9" x="182.71" y="52.35" width="3.57" height="3.57" transform="translate(92.32 -114.6) rotate(45)"/>
              <rect class="cls-9" x="192.16" y="52.35" width="3.57" height="3.57" transform="translate(95.09 -121.28) rotate(45)"/>
            </g>
            <g>
              <rect class="cls-9" x="39.71" y="327.67" width="3.57" height="3.57" transform="translate(245.12 67.16) rotate(45)"/>
              <rect class="cls-9" x="49.15" y="327.67" width="3.57" height="3.57" transform="translate(247.88 60.48) rotate(45)"/>
              <rect class="cls-9" x="58.6" y="327.67" width="3.57" height="3.57" transform="translate(250.65 53.8) rotate(45)"/>
              <rect class="cls-9" x="68.04" y="327.67" width="3.57" height="3.57" transform="translate(253.41 47.12) rotate(45)"/>
            </g>
            <g>
              <rect class="cls-9" x="360.31" y="285.51" width="3.57" height="3.57" transform="translate(309.21 -171.89) rotate(45)"/>
              <rect class="cls-9" x="369.75" y="285.51" width="3.57" height="3.57" transform="translate(311.97 -178.57) rotate(45)"/>
              <rect class="cls-9" x="379.2" y="285.51" width="3.57" height="3.57" transform="translate(314.74 -185.25) rotate(45)"/>
              <rect class="cls-9" x="388.65" y="285.51" width="3.57" height="3.57" transform="translate(317.51 -191.93) rotate(45)"/>
            </g>
            <g>
              <rect class="cls-9" x="18.46" y="242.13" width="8.03" height="8.03" transform="translate(180.64 56.2) rotate(45)"/>
              <rect class="cls-9" x="39.7" y="242.13" width="8.03" height="8.03" transform="translate(186.86 41.19) rotate(45)"/>
              <rect class="cls-9" x="60.93" y="242.13" width="8.03" height="8.03" transform="translate(193.08 26.17) rotate(45)"/>
            </g>
          </g>
          <g>
            <path class="cls-49" d="m324.77,138.42s28.68-5.67,36,17.92c7.85,25.3-15.19,42.17-33.51,34.93-19.23-7.6-2.89-26.59,8.33-6.41,16.56,29.77-17.49,52.9-42.22,31.88"/>
            <path class="cls-49" d="m32.56,299.27c-14.94,23.55-5.94,56.3,34.28,50.17"/>
          </g>
        </g>
        <g>
          <line class="cls-42" x1="146.09" y1="395.14" x2="343.12" y2="395.14"/>
          <line class="cls-42" x1=".5" y1="386.94" x2="473.27" y2="386.94"/>
        </g>
      </g>
    </g>
  </g>
</svg>