<?xml version="1.0" encoding="UTF-8"?>
<svg xmlns="http://www.w3.org/2000/svg" xmlns:xlink="http://www.w3.org/1999/xlink" viewBox="0 0 548.35 417.3">
  <defs>
    <style>
      .cls-1 {
        fill: url(#linear-gradient-38);
      }

      .cls-1, .cls-2, .cls-3, .cls-4, .cls-5, .cls-6, .cls-7, .cls-8, .cls-9, .cls-10, .cls-11, .cls-12, .cls-13, .cls-14, .cls-15, .cls-16, .cls-17, .cls-18, .cls-19, .cls-20, .cls-21, .cls-22, .cls-23, .cls-24, .cls-25, .cls-26, .cls-27, .cls-28, .cls-29, .cls-30, .cls-31, .cls-32, .cls-33, .cls-34, .cls-35, .cls-36, .cls-37, .cls-38, .cls-39, .cls-40, .cls-41, .cls-42, .cls-43, .cls-44, .cls-45, .cls-46, .cls-47, .cls-48, .cls-49, .cls-50, .cls-51, .cls-52 {
        stroke-width: 0px;
      }

      .cls-2 {
        fill: url(#linear-gradient-12);
      }

      .cls-3 {
        fill: url(#linear-gradient-17);
      }

      .cls-4 {
        fill: url(#linear-gradient-19);
      }

      .cls-5 {
        fill: url(#linear-gradient-33);
      }

      .cls-6 {
        fill: url(#linear-gradient);
      }

      .cls-7 {
        fill: #020202;
      }

      .cls-8 {
        fill: url(#linear-gradient-16);
      }

      .cls-8, .cls-18, .cls-33 {
        mix-blend-mode: multiply;
      }

      .cls-9 {
        fill: url(#linear-gradient-21);
      }

      .cls-10 {
        fill: url(#linear-gradient-6);
      }

      .cls-53 {
        stroke: #fff;
      }

      .cls-53, .cls-54, .cls-55, .cls-56, .cls-16, .cls-57, .cls-58, .cls-59, .cls-60 {
        fill: none;
      }

      .cls-53, .cls-54, .cls-58, .cls-59 {
        stroke-miterlimit: 10;
      }

      .cls-54, .cls-55, .cls-56, .cls-57, .cls-58, .cls-59, .cls-60 {
        stroke: #000;
        stroke-linecap: round;
      }

      .cls-61 {
        isolation: isolate;
      }

      .cls-11 {
        fill: url(#linear-gradient-42);
      }

      .cls-55 {
        stroke-width: .4px;
      }

      .cls-55, .cls-56, .cls-57, .cls-60 {
        stroke-linejoin: round;
      }

      .cls-62 {
        opacity: .2;
      }

      .cls-13 {
        fill: url(#linear-gradient-15);
      }

      .cls-14 {
        fill: url(#linear-gradient-11);
      }

      .cls-15 {
        fill: url(#linear-gradient-5);
      }

      .cls-56 {
        stroke-width: .5px;
      }

      .cls-17 {
        fill: url(#linear-gradient-31);
      }

      .cls-18 {
        fill: url(#linear-gradient-9);
      }

      .cls-19 {
        fill: url(#linear-gradient-34);
      }

      .cls-20 {
        fill: url(#linear-gradient-40);
      }

      .cls-21 {
        fill: url(#linear-gradient-13);
      }

      .cls-22 {
        fill: url(#linear-gradient-23);
      }

      .cls-23 {
        fill: url(#linear-gradient-25);
      }

      .cls-24 {
        fill: url(#linear-gradient-43);
      }

      .cls-25 {
        fill: url(#linear-gradient-22);
      }

      .cls-26 {
        fill: #fff;
      }

      .cls-27 {
        fill: url(#linear-gradient-35);
      }

      .cls-28 {
        fill: url(#linear-gradient-32);
      }

      .cls-29 {
        fill: url(#linear-gradient-20);
      }

      .cls-30 {
        fill: url(#linear-gradient-14);
      }

      .cls-31 {
        fill: url(#linear-gradient-2);
      }

      .cls-32 {
        fill: url(#linear-gradient-45);
      }

      .cls-33 {
        fill: url(#linear-gradient-41);
        opacity: .6;
      }

      .cls-34 {
        fill: url(#linear-gradient-7);
      }

      .cls-35 {
        fill: url(#linear-gradient-39);
      }

      .cls-36 {
        fill: url(#linear-gradient-3);
      }

      .cls-63 {
        opacity: .1;
      }

      .cls-64 {
        clip-path: url(#clippath);
      }

      .cls-37 {
        fill: url(#linear-gradient-27);
      }

      .cls-38 {
        fill: url(#linear-gradient-36);
      }

      .cls-39 {
        fill: url(#linear-gradient-48);
      }

      .cls-40 {
        fill: url(#linear-gradient-8);
      }

      .cls-41 {
        fill: url(#linear-gradient-47);
      }

      .cls-42 {
        fill: url(#linear-gradient-24);
      }

      .cls-43 {
        fill: url(#linear-gradient-26);
      }

      .cls-44 {
        fill: url(#linear-gradient-18);
      }

      .cls-45 {
        fill: url(#linear-gradient-30);
      }

      .cls-58 {
        stroke-width: 1.26px;
      }

      .cls-46 {
        fill: url(#linear-gradient-44);
      }

      .cls-47 {
        fill: url(#linear-gradient-29);
      }

      .cls-48 {
        fill: url(#linear-gradient-46);
      }

      .cls-49 {
        fill: url(#linear-gradient-28);
      }

      .cls-50 {
        fill: url(#linear-gradient-10);
      }

      .cls-59 {
        stroke-width: 3px;
      }

      .cls-60 {
        stroke-width: .44px;
      }

      .cls-51 {
        fill: url(#linear-gradient-4);
      }

      .cls-52 {
        fill: url(#linear-gradient-37);
      }
    </style>
    <linearGradient id="linear-gradient" x1="277.06" y1="-.95" x2="277.06" y2="187.98" gradientUnits="userSpaceOnUse">
      <stop offset="0" stop-color="#8ab9fd"/>
      <stop offset="1" stop-color="#0056e9"/>
    </linearGradient>
    <linearGradient id="linear-gradient-2" x1="374.04" y1="-.95" x2="374.04" y2="187.98" xlink:href="#linear-gradient"/>
    <linearGradient id="linear-gradient-3" x1="342.82" x2="342.82" xlink:href="#linear-gradient"/>
    <linearGradient id="linear-gradient-4" x1="313.38" y1="192.69" x2="313.38" y2="400.06" xlink:href="#linear-gradient"/>
    <linearGradient id="linear-gradient-5" x1="313.36" y1="192.69" x2="313.36" y2="400.06" xlink:href="#linear-gradient"/>
    <linearGradient id="linear-gradient-6" x1="337.99" y1="369.67" x2="358.93" y2="321.67" gradientTransform="translate(-154.38 480.57) rotate(-60.31)" gradientUnits="userSpaceOnUse">
      <stop offset="0" stop-color="#ffcbca"/>
      <stop offset="1" stop-color="#e994a8"/>
    </linearGradient>
    <linearGradient id="linear-gradient-7" x1="321.79" y1="408.38" x2="354.53" y2="333.33" gradientUnits="userSpaceOnUse">
      <stop offset="0" stop-color="#3f2dd1"/>
      <stop offset="1" stop-color="#4b3ffa"/>
    </linearGradient>
    <linearGradient id="linear-gradient-8" x1="319.55" y1="327.35" x2="278.19" y2="255.35" gradientUnits="userSpaceOnUse">
      <stop offset="0" stop-color="#ff9c00"/>
      <stop offset="1" stop-color="#ffca00"/>
    </linearGradient>
    <linearGradient id="linear-gradient-9" x1="305.18" y1="341.52" x2="277.02" y2="292.5" xlink:href="#linear-gradient-8"/>
    <linearGradient id="linear-gradient-10" x1="235.66" y1="385.62" x2="256.59" y2="337.62" gradientTransform="matrix(1,0,0,1,0,0)" xlink:href="#linear-gradient-6"/>
    <linearGradient id="linear-gradient-11" x1="295.45" y1="365.8" x2="295.45" y2="197.51" xlink:href="#linear-gradient-8"/>
    <linearGradient id="linear-gradient-12" x1="244.18" y1="147.16" x2="252.61" y2="199.27" gradientTransform="matrix(1,0,0,1,0,0)" xlink:href="#linear-gradient-6"/>
    <linearGradient id="linear-gradient-13" x1="292.41" y1="269.61" x2="276.92" y2="168.41" xlink:href="#linear-gradient-7"/>
    <linearGradient id="linear-gradient-14" x1="329.86" y1="263.61" x2="314.67" y2="164.37" xlink:href="#linear-gradient-7"/>
    <linearGradient id="linear-gradient-15" x1="284.94" y1="121.72" x2="300.15" y2="159.03" gradientTransform="matrix(1,0,0,1,0,0)" xlink:href="#linear-gradient-6"/>
    <linearGradient id="linear-gradient-16" x1="287.55" y1="134.51" x2="295.48" y2="153.93" gradientTransform="matrix(1,0,0,1,0,0)" xlink:href="#linear-gradient-6"/>
    <linearGradient id="linear-gradient-17" x1="281.8" y1="118.69" x2="299.32" y2="161.65" gradientTransform="matrix(1,0,0,1,0,0)" xlink:href="#linear-gradient-6"/>
    <linearGradient id="linear-gradient-18" x1="259.29" y1="123.69" x2="260.82" y2="133.16" gradientTransform="matrix(1,0,0,1,0,0)" xlink:href="#linear-gradient-6"/>
    <linearGradient id="linear-gradient-19" x1="254.49" y1="145.14" x2="254.49" y2="133.36" gradientUnits="userSpaceOnUse">
      <stop offset="0" stop-color="#be1e2b"/>
      <stop offset="1" stop-color="#d3535c"/>
    </linearGradient>
    <linearGradient id="linear-gradient-20" x1="271.3" y1="145.43" x2="271.3" y2="131.56" xlink:href="#linear-gradient-19"/>
    <linearGradient id="linear-gradient-21" x1="262.83" y1="217.65" x2="262.06" y2="230.34" gradientTransform="matrix(1,0,0,1,0,0)" xlink:href="#linear-gradient-6"/>
    <linearGradient id="linear-gradient-22" x1="299.68" y1="206.94" x2="334.88" y2="262.64" gradientTransform="matrix(1,0,0,1,0,0)" xlink:href="#linear-gradient-6"/>
    <linearGradient id="linear-gradient-23" x1="348.28" y1="260.91" x2="332.89" y2="160.35" xlink:href="#linear-gradient-7"/>
    <linearGradient id="linear-gradient-24" x1="215.23" y1="412.75" x2="239.18" y2="357.85" xlink:href="#linear-gradient-7"/>
    <linearGradient id="linear-gradient-25" x1="422.31" y1="304.01" x2="407.71" y2="275.62" gradientUnits="userSpaceOnUse">
      <stop offset="0" stop-color="#53b0b1"/>
      <stop offset="1" stop-color="#6acad8"/>
    </linearGradient>
    <linearGradient id="linear-gradient-26" x1="484.21" y1="284.84" x2="462.75" y2="250.48" xlink:href="#linear-gradient-25"/>
    <linearGradient id="linear-gradient-27" x1="433.61" y1="317.8" x2="433.61" y2="372.63" gradientUnits="userSpaceOnUse">
      <stop offset="0" stop-color="#6f95ed"/>
      <stop offset="1" stop-color="#5873ec"/>
    </linearGradient>
    <clipPath id="clippath">
      <rect class="cls-16" x="409.48" y="313.46" width="48.26" height="73.53"/>
    </clipPath>
    <linearGradient id="linear-gradient-28" x1="331.94" y1="180.87" x2="403.94" y2="276.35" gradientTransform="translate(548.36) rotate(-180) scale(1 -1)" xlink:href="#linear-gradient-27"/>
    <linearGradient id="linear-gradient-29" x1="141.86" y1="73.62" x2="157.14" y2="73.62" gradientTransform="translate(25.34 181.2) rotate(-45.51)" xlink:href="#linear-gradient-8"/>
    <linearGradient id="linear-gradient-30" x1="165.97" y1="123.56" x2="182.31" y2="107.22" xlink:href="#linear-gradient-19"/>
    <linearGradient id="linear-gradient-31" x1="319.31" y1="237.57" x2="319.31" y2="217.91" xlink:href="#linear-gradient-19"/>
    <linearGradient id="linear-gradient-32" x1="50.95" y1="61.38" x2="50.95" y2="9.01" xlink:href="#linear-gradient-8"/>
    <linearGradient id="linear-gradient-33" x1="77.44" y1="61.38" x2="77.44" y2="9.01" xlink:href="#linear-gradient-8"/>
    <linearGradient id="linear-gradient-34" x1="103.93" y1="61.38" x2="103.93" y2="9.01" xlink:href="#linear-gradient-8"/>
    <linearGradient id="linear-gradient-35" x1="77.44" y1="61.38" x2="77.44" y2="9.01" xlink:href="#linear-gradient-8"/>
    <linearGradient id="linear-gradient-36" x1="77.44" y1="61.38" x2="77.44" y2="9.01" xlink:href="#linear-gradient-8"/>
    <linearGradient id="linear-gradient-37" x1="111.96" y1="69.16" x2="199.51" y2="124.72" gradientTransform="translate(245.3 -.56) rotate(-3.54)" xlink:href="#linear-gradient"/>
    <linearGradient id="linear-gradient-38" x1="73.25" y1="52.96" x2="96.55" y2="67.45" gradientTransform="translate(245.3 -.56) rotate(-3.54)" xlink:href="#linear-gradient"/>
    <linearGradient id="linear-gradient-39" x1="77.44" y1="150.1" x2="77.44" y2="252.02" xlink:href="#linear-gradient"/>
    <linearGradient id="linear-gradient-40" x1="77.44" y1="227.49" x2="77.44" y2="183.34" xlink:href="#linear-gradient-8"/>
    <linearGradient id="linear-gradient-41" x1="77.44" y1="223.16" x2="77.44" y2="189.62" gradientUnits="userSpaceOnUse">
      <stop offset="0" stop-color="#e6832c"/>
      <stop offset="1" stop-color="#e9a347"/>
    </linearGradient>
    <linearGradient id="linear-gradient-42" x1="95.62" y1="193.97" x2="95.62" y2="176.34" xlink:href="#linear-gradient-19"/>
    <linearGradient id="linear-gradient-43" x1="14.94" y1="8.22" x2="14.94" y2="416.15" gradientUnits="userSpaceOnUse">
      <stop offset="0" stop-color="#8ab9fd" stop-opacity=".3"/>
      <stop offset="1" stop-color="#0056e9"/>
    </linearGradient>
    <linearGradient id="linear-gradient-44" x1="113.41" y1="8.22" x2="113.41" y2="416.15" xlink:href="#linear-gradient"/>
    <linearGradient id="linear-gradient-45" x1="499.66" y1="8.22" x2="499.66" y2="416.16" xlink:href="#linear-gradient"/>
    <linearGradient id="linear-gradient-46" x1="137.32" y1="8.22" x2="137.32" y2="416.15" gradientTransform="translate(188.55 -68.2) rotate(76.78)" xlink:href="#linear-gradient"/>
    <linearGradient id="linear-gradient-47" x1="436.13" y1="8.22" x2="436.13" y2="416.16" gradientTransform="translate(122.63 -148.33) rotate(22.39)" xlink:href="#linear-gradient"/>
    <linearGradient id="linear-gradient-48" x1="500.62" y1="8.23" x2="500.62" y2="416.16" gradientTransform="translate(740.66 -206.04) rotate(76.67)" xlink:href="#linear-gradient"/>
  </defs>
  <g class="cls-61">
    <g id="Layer_2" data-name="Layer 2">
      <g id="OBJECTS">
        <g>
          <g class="cls-63">
            <polygon class="cls-6" points="177.43 7.03 382.32 211.92 171.79 211.92 171.79 7.03 177.43 7.03"/>
            <polygon class="cls-31" points="454.97 7.03 454.97 168.89 293.11 7.03 454.97 7.03"/>
            <polygon class="cls-36" points="276.63 7.03 454.97 185.37 454.97 211.92 435.57 211.92 230.66 7.03 276.63 7.03"/>
          </g>
          <g>
            <path class="cls-51" d="m169.57,4.81v209.33h287.62V4.81H169.57Zm136.78,4.44v200.46h-63.95V9.24h63.95Zm-132.35,0h63.96v200.46h-63.96V9.24Zm278.75,200.46h-141.97V9.24h141.97v200.46Z"/>
            <rect class="cls-15" x="169.57" width="287.58" height="1.77"/>
          </g>
        </g>
        <g>
          <g>
            <g>
              <line class="cls-54" x1="360.24" y1="290.17" x2="360.24" y2="408.2"/>
              <line class="cls-58" x1="308.39" y1="290.17" x2="308.39" y2="408.2"/>
            </g>
            <rect class="cls-12" x="303.56" y="283.95" width="61.51" height="6.21" transform="translate(668.62 574.12) rotate(180)"/>
          </g>
          <g>
            <path class="cls-10" d="m306.44,353.44l20.66,26.01s12.96-4.95,16.28-16.95l-19.55-26.8"/>
            <g>
              <path class="cls-34" d="m341.18,359.48s9.95,2.49,17.83,15.77l-28.54,33.35h-24.77s-3.32-5.52-2.68-9.23c.64-3.71,12.06-4.05,12.06-4.05l8.73-14.77-5.28-6.82s5.98-2.54,10.96-.24l11.69-14.01Z"/>
              <path class="cls-12" d="m304.26,404.95h23.27l22.02-26.05s.27-6.13,4.58-10.39l6.11,5.3-29.78,34.79h-27.06s-.96-2.55.86-3.65Z"/>
            </g>
            <path class="cls-40" d="m303.21,248.74s-36.36,7.52-52.53,15.54c-7.91,3.93-9.28,11.87-8.23,16.44,5.55,24.32,50.09,89.48,50.09,89.48,0,0,26.8-13.27,38.44-26.29l-41.95-58.28,42.07-32.94-27.89-3.96Z"/>
            <path class="cls-18" d="m289.02,285.63l8.99,12.49-6.73,70.22c-3.81-5.66-15.69-23.47-26.84-42.29l26.57-46.29,8.98-2.72-10.97,8.59Z"/>
            <path class="cls-50" d="m234.85,356.93l-10.9,27.19s10.72,8.81,22.79,5.74l13.6-30.26"/>
            <path class="cls-14" d="m355.39,247.2h-39.57s-41.08,18.03-50.34,30.26c-1.59,2.1-35.04,88.47-35.04,88.47,0,0,18.96,9.38,42.55,10.72l21.22-78.89,48.83-13.8h14.27s8.23-19.61-1.91-36.75Z"/>
            <path class="cls-12" d="m277.91,115.68s-6.13-1.79-9.38,1.31c-4.62,4.4,4.81,16.29,4.81,16.29l4.58-17.6Z"/>
            <path class="cls-2" d="m245.38,141.21s-17.94,46.64-12.64,52.69c5.76,6.57,36.93.27,36.93.27l-2.06-22.66-13.2,2.93s1.88-16.09,4.09-33.33"/>
            <path class="cls-21" d="m293.19,164.1l-32.59,8.27s2.58,17.76,8.04,29.07l22.67-6.03"/>
            <polygon class="cls-12" points="292.25 179.59 291.31 195.41 283.45 197.5 288.89 180.84 292.25 179.59"/>
            <path class="cls-30" d="m311.55,159.45s13.73,2.49,25.82,5.81c7.61,21.38,23.77,90.74,23.77,90.74-10.35,3.84-34.57,2.7-57.94-7.26,0,0-14.65-42.92-15.38-47.81-.48-3.2,2.03-31.74,2.03-31.74l21.7-9.73Z"/>
            <polygon class="cls-12" points="321.58 192.49 326.76 223.55 340.16 219.17 321.58 192.49"/>
            <path class="cls-13" d="m289.34,150.57l3.53,18.13s13.88-.82,18.68-9.25l-12.01-15.24-10.2,6.36Z"/>
            <path class="cls-8" d="m298.55,144.83l1.12,3.96s-2.45,6.62-8.48,11.28l-1.85-9.5,9.21-5.74Z"/>
            <path class="cls-3" d="m272.48,128.15s-1.32,18.3,4.81,26.06c6.13,7.76,14.59,1.14,19.7-2.95,6.98-5.58,13.57-16.91,5.89-27.45-5.48-7.52-28-10.7-30.4,4.34Z"/>
            <path class="cls-44" d="m272.52,127.02c-2.23-.38-9.84-2.8-11.2-2-.03.02-.48.32-.73.75-1.91-.7-4.09-1.55-4.87.12-3.05-1.26-5.36-1.98-6.01-1.67-3.29,1.52-3,7.71-3,7.71,0,0,25.06-.43,26.19-1.2,1.12-.77,1.84-3.33-.38-3.71Z"/>
            <path class="cls-55" d="m256.2,126.11s4.56,1.68,5.37,2.05c1.4.63,1.13,2.18-.5,3.25"/>
            <path class="cls-55" d="m261.08,125.99s6.38,2.43,7.19,2.8c1.4.63,1.13,2.18-.5,3.25"/>
            <g>
              <g>
                <path class="cls-4" d="m271.37,132.22l-31.29-2.78c-.2-.03-.4-.05-.6-.05-3,0-5.44,3.7-5.44,8.27s2.44,8.27,5.44,8.27c.2,0,.4-.02.6-.05l31.29-2.78c1.98,0,3.58-2.44,3.58-5.44s-1.6-5.44-3.58-5.44Z"/>
                <ellipse class="cls-26" cx="239.48" cy="137.66" rx="4.56" ry="6.93"/>
              </g>
              <g>
                <path class="cls-29" d="m288.17,132.22l-31.29-2.78c-.2-.03-.4-.05-.6-.05-3,0-5.44,3.7-5.44,8.27s2.44,8.27,5.44,8.27c.2,0,.4-.02.6-.05l31.29-2.78c1.98,0,3.58-2.44,3.58-5.44s-1.6-5.44-3.58-5.44Z"/>
                <path class="cls-26" d="m260.84,137.66c0,3.83-2.04,6.93-4.56,6.93s-4.56-3.1-4.56-6.93,2.04-6.93,4.56-6.93,4.56,3.1,4.56,6.93Z"/>
                <path class="cls-55" d="m280.22,131.4c2.27,0,4.11,2.8,4.11,6.26s-1.84,6.26-4.11,6.26"/>
              </g>
            </g>
            <path class="cls-9" d="m272.58,219.17s-17.82,3.52-19.16,3.85c-1.34.34-1.16,2.95,1.18,4.29,2.35,1.34,9.86.06,9.86.06"/>
            <path class="cls-25" d="m360.63,221.38c-.97-6.07-7.87-24.66-7.87-24.66l-21.18,7.94s2.13,7,4.72,14.04c-18.77,2.6-44.37,6.79-44.37,6.79,0,0-14.8-6.91-17.25-6.91s-6.99,3.64-18.83,11.43c-1.04.69.45,3.71,3.61,3.71h3.06l10.15-5.37s1.34,6.73,7.28,9.26h13.43s.01.02.01.03c15.38-.13,60.65-.03,60.65-.03,6.62,0,8.04-7.2,6.6-16.22Z"/>
            <path class="cls-22" d="m337.61,165.31s6.16,1.35,9.69,11.07c3.65,10.07,9.57,26.73,9.57,26.73,0,0-9.42,11.59-27.31,12.17,0,0-9.63-26.53-10.76-33-2.11-12.16,10.67-18.99,18.8-16.98Z"/>
            <path class="cls-12" d="m278.53,128.85s-6.2-5.2-2.95-13.11c3.26-7.91,25.36-8.12,34.9,6.92,0,0,14.6,8.93-4.16,30.12l-5.49-6.95s8.62-9.26,2.86-12.84c-3.64-2.26-7.44,2.32-7.44,2.32,0,0-3.16-1.54-2.29-5.96,0,0-9,2.06-15.43-.5Z"/>
            <path class="cls-12" d="m302.69,120.98s1.24-19.43,11.44-16.75c10.2,2.68,18.23,16.13-6.79,19.99"/>
            <g>
              <path class="cls-42" d="m224.56,377.62l-7.71,9.75s-22.5,7.63-27.19,9.1c-3.49,1.09-2.39,9.52,3.93,12.13h57.06s2.87-11.54-1.87-23.28l-20.82.65s-1.19-4.91-3.39-8.35Z"/>
              <path class="cls-12" d="m188.82,408.6s-.3-2.05.49-3.53h52.82s4.41-2.94,9.35-3.78l.79,7.31"/>
            </g>
            <path class="cls-56" d="m337.23,218.7s7.05-.61,10.98,5.9"/>
          </g>
        </g>
        <g>
          <rect class="cls-12" x="110.7" y="237.6" width="294.64" height="6.85" transform="translate(516.05 482.05) rotate(180)"/>
          <g>
            <line class="cls-58" x1="381.36" y1="241.24" x2="381.36" y2="408.2"/>
            <line class="cls-58" x1="134.69" y1="241.24" x2="134.69" y2="408.2"/>
          </g>
          <line class="cls-58" x1="381.36" y1="370.94" x2="134.69" y2="370.94"/>
        </g>
        <g>
          <g>
            <path class="cls-12" d="m432.85,313.46s-2.68-31.02-14.74-56.68c0,0,20.33,21.26,22.33,56.68"/>
            <path class="cls-12" d="m435.69,317.25s4.6-25.85,26.04-35.23c0,0-3.25,5.06-4.66,11.62-1.86,8.64-2.74,19.81-10.72,24.89-6.03,3.83-10.66-1.28-10.66-1.28Z"/>
            <path class="cls-23" d="m424.41,302.89s5.26-.29,5.91-4.57c1.75-11.39-12.72-22.41-26.99-25.62,0,0-3.73,31.68,11.78,34.1,6.3.98,9.3-3.91,9.3-3.91Z"/>
            <path class="cls-54" d="m428.16,318.47s-4.2-31.83-22.03-42.84"/>
            <path class="cls-54" d="m434.67,324.72s-1.15-59.89,28.72-75.13"/>
            <path class="cls-43" d="m487.73,267.92c1.04-9.77.37-20.64-6.25-25.7-12.86-9.82-20.01,6.29-20.01,6.29,0,0-13.82-3.48-15.61,7.49-3.47,21.33,37.83,31.15,37.83,31.15,0,0,1.86-5.66,3.17-13.09-1.4-1.34-3.08-3.32-2.89-4.84.2-1.63,2.28-1.56,3.76-1.3Zm-23.08,4.09c-6.46,5.21-8.06-3.1-4.12-8.05,5.05-6.32,12.33,1.43,4.12,8.05Z"/>
            <g>
              <rect class="cls-37" x="409.48" y="313.46" width="48.26" height="73.53"/>
              <g class="cls-64">
                <path class="cls-53" d="m394.26,321.21s10.92,18.83,30.06,11.38c19.34-7.53,11.36-31.6,3.84-37.71"/>
                <path class="cls-53" d="m463.38,335.7s-21.09-7.05-27.69,10.31c-5.97,15.69,10.4,22.15,11.84,18.26,2.55-6.89-34.98-8.33-26.55,30.46"/>
              </g>
              <line class="cls-54" x1="409.48" y1="363.25" x2="409.48" y2="408.2"/>
              <line class="cls-54" x1="457.74" y1="363.25" x2="457.74" y2="408.2"/>
              <line class="cls-54" x1="409.48" y1="386.99" x2="457.74" y2="386.99"/>
              <line class="cls-54" x1="433.61" y1="380.86" x2="433.61" y2="408.6"/>
            </g>
          </g>
          <g>
            <g>
              <rect class="cls-12" x="232.55" y="233.71" width="58.39" height="3.95"/>
              <path class="cls-12" d="m177.93,237.6h73.17c1.34,0,2.33-1.24,2.04-2.55l-16.05-71.35c-.25-1.12-1.25-1.92-2.4-1.92h-73.17c-1.34,0-2.33,1.24-2.04,2.55l16.05,71.35c.25,1.12,1.25,1.92,2.4,1.92Z"/>
              <path class="cls-49" d="m173.85,237.6h73.17c1.34,0,2.33-1.24,2.04-2.55l-16.05-71.35c-.25-1.12-1.25-1.92-2.4-1.92h-73.17c-1.34,0-2.33,1.24-2.04,2.55l16.05,71.35c.25,1.12,1.25,1.92,2.4,1.92Z"/>
              <ellipse class="cls-53" cx="200.66" cy="201.44" rx="8.11" ry="4.72"/>
            </g>
            <g>
              <g>
                <path class="cls-47" d="m187.98,120.69c3.01,2.96,3.05,7.79.1,10.8-2.96,3.01-7.79,3.05-10.8.1s-3.05-7.79-.1-10.8c2.96-3.01,7.79-3.05,10.8-.1Z"/>
                <polygon class="cls-45" points="194.36 117.99 170.19 107.07 167.07 99.29 155.51 111.06 163.34 114.04 174.68 138.02 194.36 117.99"/>
              </g>
              <g>
                <line class="cls-59" x1="122.81" y1="141.98" x2="144.86" y2="240.05"/>
                <path class="cls-59" d="m115.61,161.78c.77.12,57.57-57.8,57.57-57.8"/>
              </g>
            </g>
            <path class="cls-17" d="m329.88,219.26h-.74v-1.35h-25.57v12.1c0,2.15,1.23,4.17,3.23,4.96.99.39,2.27.65,3.95.65v1.38c0,.31.25.56.56.56h10.1c.31,0,.56-.26.56-.57v-1.37c1.67,0,2.96-.26,3.95-.65,2-.79,3.23-2.82,3.23-4.96v-.39h.74c2.86,0,5.18-2.33,5.18-5.18s-2.32-5.18-5.18-5.18Zm0,8.24h-.74v-6.1h.74c1.68,0,3.05,1.37,3.05,3.05s-1.37,3.05-3.05,3.05Z"/>
            <g>
              <circle class="cls-12" cx="77.44" cy="36.24" r="34.39" transform="translate(-7.94 31.66) rotate(-22.01)"/>
              <circle class="cls-26" cx="77.44" cy="36.24" r="29.76" transform="translate(29.16 106.8) rotate(-80.7)"/>
              <g>
                <path class="cls-28" d="m50.95,34.44c.99,0,1.8.81,1.8,1.8s-.81,1.8-1.8,1.8-1.8-.81-1.8-1.8.81-1.8,1.8-1.8Z"/>
                <path class="cls-5" d="m79.24,9.75c0,.99-.81,1.8-1.8,1.8s-1.8-.81-1.8-1.8.81-1.8,1.8-1.8,1.8.81,1.8,1.8Z"/>
                <circle class="cls-19" cx="103.93" cy="36.24" r="1.8"/>
                <circle class="cls-27" cx="77.44" cy="62.73" r="1.8"/>
                <circle class="cls-38" cx="77.44" cy="36.24" r="4.96"/>
              </g>
              <path class="cls-12" d="m77.44,39.48c-1.79,0-3.24-1.45-3.24-3.24s1.45-3.24,3.24-3.24,3.24,1.45,3.24,3.24-1.45,3.24-3.24,3.24Z"/>
              <path class="cls-12" d="m63.38,24.61l12.19,13.78,1.87-2.15,1.87-2.15-15.31-10.2c-.46-.31-.99.29-.62.71Z"/>
              <line class="cls-57" x1="77.44" y1="36.24" x2="61.34" y2="52.38"/>
            </g>
          </g>
          <g>
            <g>
              <polygon class="cls-7" points="391.14 97.74 340.16 51.09 391.68 83.07 391.14 97.74"/>
              <polygon class="cls-52" points="375.84 95.36 414.7 65.2 340.16 51.09 375.84 95.36"/>
              <polygon class="cls-1" points="399.34 77.12 340.16 51.09 391.68 83.07 391.14 97.74 399.34 77.12"/>
            </g>
            <g>
              <rect class="cls-35" x="39.27" y="170.17" width="76.34" height="54.66" rx="5.69" ry="5.69"/>
              <g>
                <g>
                  <rect class="cls-20" x="47.26" y="186.52" width="60.36" height="41.98" rx="3.94" ry="3.94"/>
                  <polygon class="cls-33" points="85.35 206.5 103.56 192.03 77.44 207.5 51.32 192.03 69.53 206.5 51.32 223.92 72.06 208.51 77.44 212.79 82.82 208.51 103.56 223.92 85.35 206.5"/>
                </g>
                <g>
                  <circle class="cls-26" cx="95.62" cy="186.52" r="6.93"/>
                  <path class="cls-11" d="m100.63,186.52c0,2.77-2.24,5.01-5.01,5.01s-5.01-2.24-5.01-5.01,2.24-5.01,5.01-5.01,5.01,2.24,5.01,5.01Z"/>
                </g>
              </g>
            </g>
            <g>
              <path class="cls-60" d="m59.25,233.71c-12.4,10.74-42.64,49.09-15.89,69.41,36.19,27.49,73.72-29.49,50.55-37.53-16.54-5.74-23.66,32.21,6.72,41.34,44.23,13.3,68.38-40.02,51.3-44.98-20.49-5.95-20.03,60.75,24.32,58.21,40.16-2.3,40.4-49.98,29.73-71.43"/>
              <path class="cls-60" d="m393.97,99.95c37.15,22.6,54.73,86.57-19.93,94.4"/>
            </g>
            <path class="cls-12" d="m497.54,164.25c-5.69-5.69-14.91-5.69-20.59,0-5.68,5.68-5.68,14.9,0,20.58,4.99,4.99,12.72,5.59,18.37,1.81l11.56,11.56c1.11,1.11,2.91,1.11,4.02,0h0c1.11-1.11,1.11-2.91,0-4.02l-11.57-11.57c3.79-5.66,3.19-13.38-1.8-18.37Zm-2.89,17.7c-4.09,4.09-10.71,4.08-14.8,0-4.09-4.09-4.09-10.71,0-14.8,4.09-4.09,10.72-4.09,14.81,0,4.09,4.09,4.09,10.72,0,14.81Z"/>
          </g>
        </g>
        <g>
          <g class="cls-62">
            <circle class="cls-24" cx="14.94" cy="249.98" r="14.94"/>
            <circle class="cls-46" cx="113.41" cy="354.87" r="5.8"/>
            <circle class="cls-32" cx="499.66" cy="131.05" r="13.54"/>
            <circle class="cls-48" cx="137.32" cy="84.89" r="10.47" transform="translate(23.27 199.15) rotate(-76.78)"/>
            <circle class="cls-41" cx="436.13" cy="235.71" r="7.97" transform="translate(-56.9 183.86) rotate(-22.39)"/>
            <circle class="cls-39" cx="500.62" cy="365.32" r="8.4" transform="translate(29.7 768.21) rotate(-76.67)"/>
          </g>
          <g>
            <g>
              <polygon class="cls-12" points="10.39 124.05 6.91 120.57 10.39 117.1 8.67 115.38 5.19 118.86 1.71 115.38 0 117.1 3.48 120.57 0 124.05 1.71 125.77 5.19 122.29 8.67 125.77 10.39 124.05"/>
              <polygon class="cls-12" points="26.29 124.05 22.82 120.57 26.29 117.1 24.58 115.38 21.1 118.86 17.62 115.38 15.91 117.1 19.39 120.57 15.91 124.05 17.62 125.77 21.1 122.29 24.58 125.77 26.29 124.05"/>
              <polygon class="cls-12" points="42.2 124.05 38.72 120.57 42.2 117.1 40.49 115.38 37.01 118.86 33.53 115.38 31.82 117.1 35.29 120.57 31.82 124.05 33.53 125.77 37.01 122.29 40.49 125.77 42.2 124.05"/>
              <polygon class="cls-12" points="58.11 124.05 54.63 120.57 58.11 117.1 56.4 115.38 52.92 118.86 49.44 115.38 47.72 117.1 51.2 120.57 47.72 124.05 49.44 125.77 52.92 122.29 56.4 125.77 58.11 124.05"/>
            </g>
            <g>
              <polygon class="cls-12" points="40.27 334.09 36.79 330.61 40.27 327.13 38.56 325.41 35.08 328.89 31.6 325.41 29.88 327.13 33.36 330.61 29.88 334.09 31.6 335.8 35.08 332.32 38.56 335.8 40.27 334.09"/>
              <polygon class="cls-12" points="56.18 334.09 52.7 330.61 56.18 327.13 54.46 325.41 50.99 328.89 47.51 325.41 45.79 327.13 49.27 330.61 45.79 334.09 47.51 335.8 50.99 332.32 54.46 335.8 56.18 334.09"/>
              <polygon class="cls-12" points="72.09 334.09 68.61 330.61 72.09 327.13 70.37 325.41 66.89 328.89 63.41 325.41 61.7 327.13 65.18 330.61 61.7 334.09 63.41 335.8 66.89 332.32 70.37 335.8 72.09 334.09"/>
            </g>
            <g>
              <polygon class="cls-12" points="496.12 324.18 490.4 318.47 496.12 312.76 493.3 309.95 487.59 315.66 481.88 309.95 479.06 312.76 484.78 318.47 479.06 324.18 481.88 327 487.59 321.29 493.3 327 496.12 324.18"/>
              <polygon class="cls-12" points="522.24 324.18 516.52 318.47 522.24 312.76 519.42 309.95 513.71 315.66 508 309.95 505.18 312.76 510.89 318.47 505.18 324.18 508 327 513.71 321.29 519.42 327 522.24 324.18"/>
              <polygon class="cls-12" points="548.35 324.18 542.64 318.47 548.35 312.76 545.54 309.95 539.83 315.66 534.12 309.95 531.3 312.76 537.01 318.47 531.3 324.18 534.12 327 539.83 321.29 545.54 327 548.35 324.18"/>
            </g>
          </g>
        </g>
        <g>
          <line class="cls-54" x1="193.36" y1="416.8" x2="369.66" y2="416.8"/>
          <line class="cls-54" x1="63.1" y1="408.6" x2="486.12" y2="408.6"/>
        </g>
      </g>
    </g>
  </g>
</svg>