<svg width="500" height="500" viewBox="0 0 500 500" fill="none" xmlns="http://www.w3.org/2000/svg">
<path d="M454.282 209.198H437.5V208.333H250V291.667H367.74C350.563 340.177 304.407 375 250 375C180.969 375 125 319.031 125 250C125 180.969 180.969 125 250 125C281.865 125 310.855 137.021 332.927 156.656L391.855 97.7291C354.646 63.052 304.875 41.6666 250 41.6666C134.948 41.6666 41.667 134.948 41.667 250C41.667 365.052 134.948 458.333 250 458.333C365.052 458.333 458.334 365.052 458.334 250C458.334 236.031 456.896 222.396 454.282 209.198Z" fill="#FFC107"/>
<path d="M65.6875 153.031L134.135 203.229C152.656 157.375 197.51 125 250 125C281.865 125 310.854 137.021 332.927 156.656L391.854 97.7291C354.646 63.052 304.875 41.6666 250 41.6666C169.979 41.6666 100.583 86.8437 65.6875 153.031Z" fill="#FF3D00"/>
<path d="M250 458.333C303.813 458.333 352.708 437.74 389.677 404.25L325.198 349.688C303.582 366.136 277.162 375.029 250 375C195.813 375 149.802 340.448 132.469 292.229L64.5312 344.573C99.0104 412.042 169.031 458.333 250 458.333Z" fill="#4CAF50"/>
<path d="M454.281 209.198H437.5V208.333H250V291.667H367.74C359.523 314.754 344.722 334.929 325.167 349.698L325.198 349.677L389.677 404.24C385.115 408.385 458.333 354.167 458.333 250C458.333 236.031 456.896 222.396 454.281 209.198Z" fill="#1976D2"/>
</svg>
